<svg width="512" height="512" viewBox="0 0 512 512" xmlns="http://www.w3.org/2000/svg">
  <defs>
    <linearGradient id="g" x1="0" x2="1" y1="0" y2="1">
      <stop offset="0%" stop-color="#60A5FA"/>
      <stop offset="100%" stop-color="#22C55E"/>
    </linearGradient>
  </defs>
  <rect rx="112" ry="112" width="512" height="512" fill="#0F172A"/>
  <g fill="url(#g)" transform="translate(96,96)">
    <path d="M160 0c88.4 0 160 71.6 160 160s-71.6 160-160 160S0 248.4 0 160 71.6 0 160 0zm0 48c-61.9 0-112 50.1-112 112s50.1 112 112 112 112-50.1 112-112S221.9 48 160 48z"/>
    <circle cx="160" cy="160" r="64"/>
  </g>
  <g fill="white" opacity="0.9" transform="translate(180,372)">
    <rect x="0" y="0" width="152" height="20" rx="10" fill="url(#g)"/>
  </g>
  <g opacity="0.9" transform="translate(80,430)">
    <text x="176" y="24" text-anchor="middle" font-family="Inter, system-ui, -apple-system, Segoe UI, Roboto, Ubuntu, Cantarell, Noto Sans, Helvetica, Arial, Apple Color Emoji, Segoe UI Emoji" font-size="40" fill="white">Bestie</text>
  </g>
</svg>
